# Blender 4.3.2
# www.blender.org
o Plane.001
v 0.000000 1.000000 -1.000000
v 0.000000 -1.000000 -1.000000
v -0.000000 1.000000 1.000000
v -0.000000 -1.000000 1.000000
v 0.000000 -0.993208 -0.745869
v -0.000000 -0.993208 0.745869
v -0.039277 -0.993208 -0.745869
v -0.039277 -0.993208 0.745869
v -0.039277 1.000000 1.000000
v -0.039277 1.000000 -1.000000
v -0.039277 -1.000000 -1.000000
v -0.039277 -1.000000 1.000000
v -0.000000 0.602754 0.745869
v -0.000000 0.787699 0.560924
v 0.000000 0.787699 -0.560924
v 0.000000 0.602754 -0.745869
v -0.039277 0.787699 0.560924
v -0.039277 0.602754 0.745869
v -0.039277 0.906271 0.887804
v -0.039277 0.602754 -0.745869
v -0.039277 0.787699 -0.560924
v -0.039277 0.906271 -0.887804
v -0.063522 0.906271 0.887804
v -0.063522 0.787699 0.560924
v -0.063522 0.602754 0.745869
v -0.063521 0.906271 -0.887804
v -0.063521 0.602754 -0.745869
v -0.063521 0.787699 -0.560924
v -0.039277 -0.546143 -1.000000
v -0.039277 -0.546143 1.000000
v -0.039277 -0.546143 0.745869
v -0.039277 -0.546143 -0.745869
v -0.039277 -0.469362 -0.745869
v -0.039277 -0.469362 -1.000000
v -0.039277 -0.469362 0.745869
v -0.039277 -0.469362 1.000000
v -0.055273 -0.469362 -1.000000
v -0.055273 -0.546143 -1.000000
v -0.055273 -0.469362 -0.745869
v -0.055273 -0.546143 -0.745869
v -0.055273 -0.546143 0.745869
v -0.055273 -0.546143 1.000000
v -0.055273 -0.469362 0.745869
v -0.055273 -0.469362 1.000000
v -0.000000 1.000000 1.000000
v 0.000000 -1.000000 1.000000
v -0.000000 1.000000 -1.000000
v 0.000000 -1.000000 -1.000000
v 0.000000 -0.993208 0.745869
v 0.000000 -0.993208 -0.745869
v 0.039277 -0.993208 0.745869
v 0.039277 -0.993208 -0.745869
v 0.039277 1.000000 -1.000000
v 0.039277 1.000000 1.000000
v 0.039277 -1.000000 1.000000
v 0.039277 -1.000000 -1.000000
v -0.000000 0.602754 -0.745869
v -0.000000 0.787699 -0.560924
v -0.000000 0.787699 0.560924
v -0.000000 0.602754 0.745869
v 0.039277 0.787699 -0.560924
v 0.039277 0.602754 -0.745869
v 0.039277 0.906271 -0.887804
v 0.039277 0.602754 0.745869
v 0.039277 0.787699 0.560924
v 0.039277 0.906271 0.887804
v 0.063521 0.906271 -0.887804
v 0.063521 0.787699 -0.560924
v 0.063521 0.602754 -0.745869
v 0.063521 0.906271 0.887804
v 0.063521 0.602754 0.745869
v 0.063521 0.787699 0.560924
v 0.039277 -0.546143 1.000000
v 0.039277 -0.546143 -1.000000
v 0.039277 -0.546143 -0.745869
v 0.039277 -0.546143 0.745869
v 0.039277 -0.469362 0.745869
v 0.039277 -0.469362 1.000000
v 0.039277 -0.469362 -0.745869
v 0.039277 -0.469362 -1.000000
v 0.055273 -0.469362 1.000000
v 0.055273 -0.546143 1.000000
v 0.055273 -0.469362 0.745869
v 0.055273 -0.546143 0.745869
v 0.055273 -0.546143 -0.745869
v 0.055273 -0.546143 -1.000000
v 0.055273 -0.469362 -0.745869
v 0.055273 -0.469362 -1.000000
vn -0.0000 -0.0000 -1.0000
vn -0.0000 -0.9996 -0.0267
vn -0.0000 1.0000 -0.0000
vn -1.0000 -0.0000 -0.0000
vn -0.0000 -0.0000 1.0000
vn -0.0000 -0.9996 0.0267
vn -0.0000 -0.4236 0.9058
vn -0.0000 -0.7071 0.7071
vn -0.0000 -0.7071 -0.7071
vn -0.0000 -1.0000 -0.0000
vn -0.0000 0.9401 -0.3410
vn -0.0000 0.9401 0.3410
vn -0.0000 -0.4236 -0.9058
vn 1.0000 -0.0000 -0.0000
vt 0.032451 0.973045
vt 0.500000 0.416908
vt 0.226853 0.973045
vt 0.226853 0.973045
vt 0.039834 0.965662
vt 0.218240 0.971814
vt 0.154260 0.968123
vt 0.032451 0.973045
vt 0.157951 0.971814
vt 0.226853 0.971814
vt 0.217010 0.973045
s 0
f 13/1/1 6/1/1 8/1/1 31/1/1 35/1/1 18/1/1
f 6/2/2 4/2/2 12/2/2 8/2/2
f 3/1/3 1/1/3 10/1/3 9/1/3
f 19/1/4 18/1/4 35/1/4 36/1/4 9/1/4
f 7/1/4 32/1/4 29/1/4 11/1/4
f 4/1/5 3/1/5 9/1/5 36/1/5 30/1/5 12/1/5
f 1/1/1 2/1/1 11/1/1 29/1/1 34/1/1 10/1/1
f 5/1/5 16/1/5 20/1/5 33/1/5 32/1/5 7/1/5
f 22/1/4 21/1/4 17/1/4 19/1/4 9/1/4 10/1/4
f 2/2/6 5/2/6 7/2/6 11/2/6
f 18/2/7 19/2/7 23/2/7 25/2/7
f 20/3/8 21/3/8 28/3/8 27/3/8
f 13/4/9 18/4/9 17/3/9 14/3/9
f 20/3/8 16/3/8 15/3/8 21/3/8
f 15/5/10 14/5/10 17/5/10 21/5/10
f 24/6/4 25/6/4 23/6/4
f 27/6/4 28/6/4 26/6/4
f 19/2/11 17/2/11 24/2/11 23/2/11
f 21/2/12 22/2/12 26/2/12 28/2/12
f 22/2/13 20/2/13 27/2/13 26/2/13
f 17/3/9 18/4/9 25/4/9 24/3/9
f 38/7/4 40/7/4 39/7/4 37/7/4
f 30/1/4 31/1/4 8/1/4 12/1/4
f 34/2/1 29/2/1 38/2/1 37/2/1
f 34/1/4 33/8/4 20/1/4 22/1/4 10/1/4
f 36/2/3 35/2/3 43/2/3 44/2/3
f 44/7/4 43/7/4 41/7/4 42/7/4
f 30/2/5 36/2/5 44/2/5 42/2/5
f 29/2/10 32/2/10 40/2/10 38/2/10
f 32/9/5 33/9/5 39/9/5 40/9/5
f 33/2/3 34/2/3 37/2/3 39/2/3
f 35/9/1 31/9/1 41/9/1 43/9/1
f 31/2/10 30/2/10 42/2/10 41/2/10
f 57/1/5 50/1/5 52/1/5 75/1/5 79/1/5 62/1/5
f 50/2/6 48/2/6 56/2/6 52/2/6
f 47/1/3 45/1/3 54/1/3 53/1/3
f 63/1/14 62/1/14 79/1/14 80/1/14 53/1/14
f 51/1/14 76/1/14 73/1/14 55/1/14
f 48/1/1 47/1/1 53/1/1 80/1/1 74/1/1 56/1/1
f 45/1/5 46/1/5 55/1/5 73/1/5 78/1/5 54/1/5
f 49/1/1 60/1/1 64/1/1 77/1/1 76/1/1 51/1/1
f 66/1/14 65/1/14 61/1/14 63/1/14 53/1/14 54/1/14
f 46/2/2 49/2/2 51/2/2 55/2/2
f 62/2/13 63/2/13 67/2/13 69/2/13
f 64/3/9 65/3/9 72/3/9 71/3/9
f 57/3/8 62/3/8 61/3/8 58/3/8
f 64/3/9 60/3/9 59/3/9 65/3/9
f 59/5/10 58/5/10 61/5/10 65/5/10
f 68/10/14 69/10/14 67/10/14
f 71/11/14 72/11/14 70/11/14
f 63/2/12 61/2/12 68/2/12 67/2/12
f 65/2/11 66/2/11 70/2/11 72/2/11
f 66/2/7 64/2/7 71/2/7 70/2/7
f 61/3/8 62/3/8 69/3/8 68/3/8
f 82/7/14 84/7/14 83/7/14 81/7/14
f 74/1/14 75/1/14 52/1/14 56/1/14
f 78/2/5 73/2/5 82/2/5 81/2/5
f 78/1/14 77/8/14 64/1/14 66/1/14 54/1/14
f 80/2/3 79/2/3 87/2/3 88/2/3
f 88/7/14 87/7/14 85/7/14 86/7/14
f 74/2/1 80/2/1 88/2/1 86/2/1
f 73/2/10 76/2/10 84/2/10 82/2/10
f 76/9/1 77/9/1 83/9/1 84/9/1
f 77/2/3 78/2/3 81/2/3 83/2/3
f 79/9/5 75/9/5 85/9/5 87/9/5
f 75/2/10 74/2/10 86/2/10 85/2/10
