# Blender 4.3.2
# www.blender.org
o Plane
v -1.000000 0.000000 1.000000
v 1.000000 0.000000 1.000000
v -1.000000 0.000000 -1.000000
v 1.000000 0.000000 -1.000000
v -0.915504 0.012824 -0.915504
v -0.915504 0.012824 0.915504
v 0.915504 0.012824 0.915504
v 0.915504 0.012824 -0.915504
v 0.827402 0.127181 0.798715
v 0.827402 0.009204 0.798715
v -0.827401 0.009204 0.798715
v -0.827401 0.127181 0.798715
v -0.805195 0.009204 0.805930
v -0.805195 0.127181 0.805930
v -0.791471 0.009204 0.824820
v -0.791471 0.127181 0.824820
v -0.791471 0.009204 0.848168
v -0.791471 0.127181 0.848168
v -0.805195 0.009204 0.867058
v -0.805195 0.127181 0.867058
v -0.827401 0.009204 0.874273
v -0.827401 0.127181 0.874273
v -0.849608 0.009204 0.867058
v -0.849608 0.127181 0.867058
v -0.863332 0.009204 0.848168
v -0.863332 0.127181 0.848168
v -0.863332 0.009204 0.824820
v -0.863332 0.127181 0.824820
v -0.849608 0.009204 0.805930
v -0.849608 0.127181 0.805930
v 0.849608 0.009204 0.805930
v 0.849608 0.127181 0.805930
v 0.863332 0.009204 0.824820
v 0.863332 0.127181 0.824820
v 0.863332 0.009204 0.848168
v 0.863332 0.127181 0.848168
v 0.849608 0.009204 0.867058
v 0.849608 0.127181 0.867058
v 0.827402 0.009204 0.874273
v 0.827402 0.127181 0.874273
v 0.805196 0.009204 0.867058
v 0.805196 0.127181 0.867058
v 0.791471 0.009204 0.848168
v 0.791471 0.127181 0.848168
v 0.791471 0.009204 0.824820
v 0.791471 0.127181 0.824820
v 0.805196 0.009204 0.805930
v 0.805196 0.127181 0.805930
v 0.827402 0.127181 -0.860635
v 0.827402 0.009204 -0.860635
v -0.827401 0.009204 -0.860635
v -0.827401 0.127181 -0.860635
v -0.805195 0.009204 -0.853420
v -0.805195 0.127181 -0.853420
v -0.791471 0.009204 -0.834530
v -0.791471 0.127181 -0.834530
v -0.791471 0.009204 -0.811181
v -0.791471 0.127181 -0.811181
v -0.805195 0.009204 -0.792291
v -0.805195 0.127181 -0.792291
v -0.827401 0.009204 -0.785076
v -0.827401 0.127181 -0.785076
v -0.849608 0.009204 -0.792291
v -0.849608 0.127181 -0.792291
v -0.863332 0.009204 -0.811181
v -0.863332 0.127181 -0.811181
v -0.863332 0.009204 -0.834530
v -0.863332 0.127181 -0.834530
v -0.849608 0.009204 -0.853420
v -0.849608 0.127181 -0.853420
v 0.849608 0.009204 -0.853420
v 0.849608 0.127181 -0.853420
v 0.863332 0.009204 -0.834530
v 0.863332 0.127181 -0.834530
v 0.863332 0.009204 -0.811181
v 0.863332 0.127181 -0.811181
v 0.849608 0.009204 -0.792291
v 0.849608 0.127181 -0.792291
v 0.827402 0.009204 -0.785076
v 0.827402 0.127181 -0.785076
v 0.805196 0.009204 -0.792291
v 0.805196 0.127181 -0.792291
v 0.791471 0.009204 -0.811181
v 0.791471 0.127181 -0.811181
v 0.791471 0.009204 -0.834530
v 0.791471 0.127181 -0.834530
v 0.805196 0.009204 -0.853420
v 0.805196 0.127181 -0.853420
vn -0.0000 1.0000 -0.0000
vn -0.1500 0.9887 -0.0000
vn -0.0000 0.9887 0.1500
vn 0.1500 0.9887 -0.0000
vn -0.0000 0.9887 -0.1500
vn 1.0000 -0.0000 -0.0000
vn 0.3090 -0.0000 -0.9511
vn -0.3090 -0.0000 0.9511
vn -1.0000 -0.0000 -0.0000
vn 0.8090 -0.0000 -0.5878
vn -0.8090 -0.0000 0.5878
vn 0.8090 -0.0000 0.5878
vn 0.3090 -0.0000 0.9511
vn -0.0000 -1.0000 -0.0000
vn -0.3090 -0.0000 -0.9511
vn -0.8090 -0.0000 -0.5878
vt 0.042248 0.042248
vt 0.957752 0.042248
vt 0.957752 0.957752
vt 0.042248 0.957752
vt 0.000000 1.000000
vt 0.000000 0.000000
vt 1.000000 0.000000
vt 1.000000 1.000000
vt 0.800000 0.500000
vt 0.800000 1.000000
vt 0.700000 1.000000
vt 0.700000 0.500000
vt 0.391068 0.444164
vt 0.250000 0.490000
vt 0.108932 0.444164
vt 0.021746 0.324164
vt 0.021746 0.175836
vt 0.108932 0.055836
vt 0.250000 0.010000
vt 0.391068 0.055836
vt 0.478254 0.175836
vt 0.478254 0.324164
vt 1.000000 0.500000
vt 0.900000 1.000000
vt 0.900000 0.500000
vt 0.500000 0.500000
vt 0.500000 1.000000
vt 0.400000 1.000000
vt 0.400000 0.500000
vt 0.300000 0.500000
vt 0.300000 1.000000
vt 0.200000 1.000000
vt 0.200000 0.500000
vt 0.600000 1.000000
vt 0.600000 0.500000
vt 0.750000 0.490000
vt 0.891068 0.444164
vt 0.978254 0.324164
vt 0.978254 0.175836
vt 0.891068 0.055836
vt 0.750000 0.010000
vt 0.608932 0.055836
vt 0.521746 0.175836
vt 0.521746 0.324164
vt 0.608932 0.444164
vt 0.100000 0.500000
vt 0.100000 1.000000
vt -0.000000 1.000000
vt -0.000000 0.500000
s 0
f 6/1/1 7/2/1 8/3/1 5/4/1
f 6/1/2 5/4/2 3/5/2 1/6/2
f 7/2/3 6/1/3 1/6/3 2/7/3
f 8/3/4 7/2/4 2/7/4 4/8/4
f 5/4/5 8/3/5 4/8/5 3/5/5
f 55/9/6 56/10/6 58/11/6 57/12/6
f 32/13/1 9/14/1 48/15/1 46/16/1 44/17/1 42/18/1 40/19/1 38/20/1 36/21/1 34/22/1
f 11/23/7 12/8/7 14/24/7 13/25/7
f 79/26/8 80/27/8 82/28/8 81/29/8
f 43/30/9 44/31/9 46/32/9 45/33/9
f 13/25/10 14/24/10 16/10/10 15/9/10
f 53/25/10 54/24/10 56/10/10 55/9/10
f 41/29/11 42/28/11 44/31/11 43/30/11
f 15/9/6 16/10/6 18/11/6 17/12/6
f 83/30/9 84/31/9 86/32/9 85/33/9
f 39/26/8 40/27/8 42/28/8 41/29/8
f 17/12/12 18/11/12 20/34/12 19/35/12
f 51/23/7 52/8/7 54/24/7 53/25/7
f 37/35/13 38/34/13 40/27/13 39/26/13
f 19/35/13 20/34/13 22/27/13 21/26/13
f 72/13/1 49/14/1 88/15/1 86/16/1 84/17/1 82/18/1 80/19/1 78/20/1 76/21/1 74/22/1
f 35/12/12 36/11/12 38/34/12 37/35/12
f 21/26/8 22/27/8 24/28/8 23/29/8
f 10/36/14 31/37/14 33/38/14 35/39/14 37/40/14 39/41/14 41/42/14 43/43/14 45/44/14 47/45/14
f 33/9/6 34/10/6 36/11/6 35/12/6
f 23/29/11 24/28/11 26/31/11 25/30/11
f 47/46/15 48/47/15 9/48/15 10/49/15
f 31/25/10 32/24/10 34/10/10 33/9/10
f 25/30/9 26/31/9 28/32/9 27/33/9
f 14/13/1 12/14/1 30/15/1 28/16/1 26/17/1 24/18/1 22/19/1 20/20/1 18/21/1 16/22/1
f 10/23/7 9/8/7 32/24/7 31/25/7
f 27/33/16 28/32/16 30/47/16 29/46/16
f 81/29/11 82/28/11 84/31/11 83/30/11
f 45/33/16 46/32/16 48/47/16 47/46/16
f 29/46/15 30/47/15 12/48/15 11/49/15
f 11/36/14 13/37/14 15/38/14 17/39/14 19/40/14 21/41/14 23/42/14 25/43/14 27/44/14 29/45/14
f 57/12/12 58/11/12 60/34/12 59/35/12
f 77/35/13 78/34/13 80/27/13 79/26/13
f 59/35/13 60/34/13 62/27/13 61/26/13
f 75/12/12 76/11/12 78/34/12 77/35/12
f 61/26/8 62/27/8 64/28/8 63/29/8
f 50/36/14 71/37/14 73/38/14 75/39/14 77/40/14 79/41/14 81/42/14 83/43/14 85/44/14 87/45/14
f 73/9/6 74/10/6 76/11/6 75/12/6
f 63/29/11 64/28/11 66/31/11 65/30/11
f 87/46/15 88/47/15 49/48/15 50/49/15
f 71/25/10 72/24/10 74/10/10 73/9/10
f 65/30/9 66/31/9 68/32/9 67/33/9
f 54/13/1 52/14/1 70/15/1 68/16/1 66/17/1 64/18/1 62/19/1 60/20/1 58/21/1 56/22/1
f 50/23/7 49/8/7 72/24/7 71/25/7
f 67/33/16 68/32/16 70/47/16 69/46/16
f 85/33/16 86/32/16 88/47/16 87/46/16
f 69/46/15 70/47/15 52/48/15 51/49/15
f 51/36/14 53/37/14 55/38/14 57/39/14 59/40/14 61/41/14 63/42/14 65/43/14 67/44/14 69/45/14
