# Blender 4.3.2
# www.blender.org
o Plane
v -1.000000 0.000000 1.000000
v 1.000000 0.000000 1.000000
v -1.000000 0.000000 -1.000000
v 1.000000 0.000000 -1.000000
v -0.988879 0.000000 -0.988879
v -0.988879 0.000000 0.988879
v 0.988879 0.000000 0.988879
v 0.988879 0.000000 -0.988879
v -0.988879 0.005593 -0.988879
v -0.988879 0.005593 0.988879
v 0.988879 0.005593 0.988879
v 0.988879 0.005593 -0.988879
vn -0.0000 -0.0000 1.0000
vn -0.0000 1.0000 -0.0000
vn 1.0000 -0.0000 -0.0000
vn -1.0000 -0.0000 -0.0000
vn -0.0000 -0.0000 -1.0000
vt 0.005561 0.005561
vt 0.994439 0.005561
vt 0.005561 0.994439
vt 0.000000 1.000000
vt 0.000000 0.000000
vt 1.000000 0.000000
vt 0.994439 0.994439
vt 1.000000 1.000000
s 0
f 6/1/1 7/2/1 11/2/1 10/1/1
f 6/1/2 5/3/2 3/4/2 1/5/2
f 7/2/2 6/1/2 1/5/2 2/6/2
f 8/7/2 7/2/2 2/6/2 4/8/2
f 5/3/2 8/7/2 4/8/2 3/4/2
f 10/1/2 11/2/2 12/7/2 9/3/2
f 7/2/3 8/7/3 12/7/3 11/2/3
f 5/3/4 6/1/4 10/1/4 9/3/4
f 8/7/5 5/3/5 9/3/5 12/7/5
