# Blender 4.3.2
# www.blender.org
mtllib SM_Wall_Window.mtl
o Plane.001
v -1.000000 0.000000 -1.000000
v 1.000000 0.000000 -1.000000
v -1.000000 2.000000 -1.000000
v 1.000000 2.000000 -1.000000
v -0.838622 1.838622 -1.000000
v -0.834599 0.416664 -1.000000
v 0.834599 0.416664 -1.000000
v 0.835227 1.835227 -1.000000
v 0.000000 0.416664 -1.000000
v 0.039242 1.835227 -1.000000
v 0.000000 0.000000 -1.000000
v 0.000000 2.000000 -1.000000
v -0.834599 1.433514 -1.000000
v 0.834599 1.433514 -1.000000
v -1.000000 1.464390 -1.000000
v 1.000000 1.464390 -1.000000
v 0.000000 1.433514 -1.000000
v -0.838622 1.509232 -1.000000
v -0.874470 0.376794 -1.000000
v 0.000000 0.376794 -1.000000
v 0.874470 0.376794 -1.000000
v 0.835227 1.512627 -1.000000
v 0.039242 1.512627 -1.000000
v 0.874470 1.473385 -1.000000
v 0.874470 1.874470 -1.000000
v -0.035847 1.838622 -1.000000
v -0.035847 1.509232 -1.000000
v 0.000000 1.874470 -1.000000
v -0.874470 1.874470 -1.000000
v 0.000000 1.473385 -1.000000
v -0.874470 1.473385 -1.000000
v 0.000000 0.416664 -1.045634
v 0.000000 1.433514 -1.045634
v -0.834599 1.433514 -1.045634
v -0.834599 0.416664 -1.045634
v 0.834599 0.416664 -1.045634
v 0.834599 1.433514 -1.045634
v 0.835227 1.512627 -1.045634
v 0.835227 1.835227 -1.045634
v 0.039242 1.835227 -1.045634
v 0.039242 1.512627 -1.045634
v -0.035847 1.838622 -1.045634
v -0.838622 1.838622 -1.045634
v -0.035847 1.509232 -1.045634
v -0.838622 1.509232 -1.045634
vn -0.0000 1.0000 -0.0000
vn -0.0000 -0.0000 1.0000
vn 1.0000 -0.0000 -0.0000
vn -1.0000 -0.0000 -0.0000
vn -0.0000 -1.0000 -0.0000
vt 0.500000 0.086045
vt 0.917299 0.086045
vt 0.062765 0.703048
vt 0.062765 0.937235
vt 0.000000 1.000000
vt 0.000000 0.732195
vt 0.500000 0.062765
vt 0.062765 0.062765
vt 0.000000 0.000000
vt 0.500000 0.000000
vt 0.937235 0.703048
vt 0.937235 0.062765
vt 1.000000 0.000000
vt 1.000000 0.732195
vt 0.500000 0.937235
vt 0.937235 0.937235
vt 1.000000 1.000000
vt 0.500000 1.000000
vt 0.080689 0.723978
vt 0.482076 0.723978
vt 0.519621 0.725960
vt 0.917614 0.725960
vt 0.082700 0.679768
vt 0.082700 0.086045
vt 0.917300 0.679768
vt 0.500000 0.679768
vt 0.500000 0.703048
vt 0.917614 0.914322
vt 0.519621 0.914322
vt 0.080689 0.916304
vt 0.482076 0.916304
s 0
f 9/1/1 7/2/1 36/2/1 32/1/1
f 31/3/2 29/4/2 3/5/2 15/6/2
f 20/7/2 19/8/2 1/9/2 11/10/2
f 24/11/2 21/12/2 2/13/2 16/14/2
f 28/15/2 25/16/2 4/17/2 12/18/2
f 29/4/2 28/15/2 12/18/2 3/5/2
f 21/12/2 20/7/2 11/10/2 2/13/2
f 18/19/1 27/20/1 44/20/1 45/19/1
f 23/21/1 22/22/1 38/22/1 41/21/1
f 25/16/2 24/11/2 16/14/2 4/17/2
f 19/8/2 31/3/2 15/6/2 1/9/2
f 13/23/3 6/24/3 35/24/3 34/23/3
f 6/24/2 13/23/2 31/3/2 19/8/2
f 7/2/2 9/1/2 20/7/2 21/12/2
f 9/1/2 6/24/2 19/8/2 20/7/2
f 14/25/2 7/2/2 21/12/2 24/11/2
f 13/23/2 17/26/2 30/27/2 31/3/2
f 17/26/2 14/25/2 24/11/2 30/27/2
f 8/28/2 22/22/2 24/11/2 25/16/2
f 10/29/2 8/28/2 25/16/2 28/15/2
f 23/21/2 10/29/2 28/15/2 30/27/2
f 22/22/2 23/21/2 30/27/2 24/11/2
f 5/30/2 26/31/2 28/15/2 29/4/2
f 26/31/2 27/20/2 30/27/2 28/15/2
f 18/19/2 5/30/2 29/4/2 31/3/2
f 27/20/2 18/19/2 31/3/2 30/27/2
f 6/24/1 9/1/1 32/1/1 35/24/1
f 7/2/4 14/25/4 37/25/4 36/2/4
f 17/26/5 13/23/5 34/23/5 33/26/5
f 22/22/4 8/28/4 39/28/4 38/22/4
f 14/25/5 17/26/5 33/26/5 37/25/5
f 26/31/5 5/30/5 43/30/5 42/31/5
f 8/28/5 10/29/5 40/29/5 39/28/5
f 27/20/4 26/31/4 42/31/4 44/20/4
f 10/29/3 23/21/3 41/21/3 40/29/3
f 5/30/3 18/19/3 45/19/3 43/30/3
