# Blender 4.3.2
# www.blender.org
o Plane.001
v -1.000000 0.000000 -1.000000
v 1.000000 0.000000 -1.000000
v -1.000000 2.000000 -1.000000
v 1.000000 2.000000 -1.000000
v -0.609253 1.609253 -1.000000
v -0.609253 0.390747 -1.000000
v 0.609253 0.390747 -1.000000
v 0.609253 1.609253 -1.000000
v -1.000000 0.371819 -0.964882
v -1.000000 0.407057 -0.964882
v -1.000000 0.371819 -1.000120
v -1.000000 0.407057 -1.000120
v 1.000000 0.371819 -0.964882
v 1.000000 0.407057 -0.964882
v 1.000000 0.371819 -1.000120
v 1.000000 0.407057 -1.000120
v -1.000000 1.594103 -0.964882
v -1.000000 1.629342 -0.964882
v -1.000000 1.594103 -1.000120
v -1.000000 1.629342 -1.000120
v 1.000000 1.594103 -0.964882
v 1.000000 1.629342 -0.964882
v 1.000000 1.594103 -1.000120
v 1.000000 1.629342 -1.000120
vn -1.0000 -0.0000 -0.0000
vn -0.0000 -0.0000 1.0000
vn -0.0000 -0.0000 -1.0000
vn 1.0000 -0.0000 -0.0000
vn -0.0000 -1.0000 -0.0000
vn -0.0000 1.0000 -0.0000
vt 0.375000 0.000000
vt 0.625000 0.000000
vt 0.625000 0.250000
vt 0.375000 0.250000
vt 0.195374 0.195374
vt 0.195374 0.804626
vt 0.000000 1.000000
vt 0.000000 0.000000
vt 0.804626 0.195374
vt 1.000000 0.000000
vt 0.804626 0.804626
vt 1.000000 1.000000
vt 0.625000 0.500000
vt 0.375000 0.500000
vt 0.625000 0.750000
vt 0.375000 0.750000
vt 0.625000 1.000000
vt 0.375000 1.000000
vt 0.125000 0.500000
vt 0.125000 0.750000
vt 0.875000 0.500000
vt 0.875000 0.750000
s 0
f 9/1/1 10/2/1 12/3/1 11/4/1
f 6/5/2 5/6/2 3/7/2 1/8/2
f 7/9/2 6/5/2 1/8/2 2/10/2
f 8/11/2 7/9/2 2/10/2 4/12/2
f 5/6/2 8/11/2 4/12/2 3/7/2
f 11/4/3 12/3/3 16/13/3 15/14/3
f 15/14/4 16/13/4 14/15/4 13/16/4
f 13/16/2 14/15/2 10/17/2 9/18/2
f 11/19/5 15/14/5 13/16/5 9/20/5
f 16/13/6 12/21/6 10/22/6 14/15/6
f 17/1/1 18/2/1 20/3/1 19/4/1
f 19/4/3 20/3/3 24/13/3 23/14/3
f 23/14/4 24/13/4 22/15/4 21/16/4
f 21/16/2 22/15/2 18/17/2 17/18/2
f 19/19/5 23/14/5 21/16/5 17/20/5
f 24/13/6 20/21/6 18/22/6 22/15/6
